#!OML:ASF G:\JayActor3\Patient Classification 1\Patient 1\Session 6\male.ASF
:FULLY-SPECIFIED
:DEGREES
505
root 5.27972 16.5087 -4.47877 300.368 -97.0993 -306.039
lowerback 4.70147 -4.10751 3.04921
upperback 1.29342 -5.55312 7.47174
thorax -0.823065 -2.93074 6.34981
lowerneck -0.407476 13.0434 17.6223
upperneck 2.13562 17.993 -16.8773
head 3.86413 8.8882 -6.88748
rclavicle 3.39549e-014 -3.49861e-014
rhumerus 5.75026 53.1851 -39.2778
rradius 104.645
rwrist -53.3042
rhand 40.2991 -23.3559
rfingers 7.12502
rthumb 62.6426 -34.0259
lclavicle 3.39549e-014 -3.49861e-014
lhumerus -57.0286 -27.2012 97.607
lradius 89.7337
lwrist 54.5884
lhand 25.3028 44.0414
lfingers 7.12502
lthumb 49.439 65.5538
rfemur -18.3281 -11.5112 16.7941
rtibia 53.7036
rfoot -0.676513 -1.95368
rtoes -3.01979
lfemur -3.26027 13.2424 -9.43818
ltibia 29.8538
lfoot -15.8177 0.973045
ltoes -8.6613
506
root 5.2934 16.5065 -4.41534 306.971 -96.9749 -312.504
lowerback 4.61885 -4.14506 2.73075
upperback 1.31796 -5.6247 7.44385
thorax -0.718165 -2.9673 6.49227
lowerneck -0.57007 13.0288 17.5547
upperneck 2.78493 18.0249 -16.9586
head 4.09199 8.88959 -6.87299
rclavicle 3.98936e-014 -1.90833e-014
rhumerus 7.61445 54.1464 -37.1931
rradius 103.492
rwrist -51.5755
rhand 40.8006 -23.4328
rfingers 7.12502
rthumb 63.0555 -33.5473
lclavicle 3.98936e-014 -1.90833e-014
lhumerus -57.3387 -28.0199 97.8926
lradius 87.5703
lwrist 51.8724
lhand 24.9625 43.6966
lfingers 7.12502
lthumb 49.1268 65.366
rfemur -20.1439 -12.1877 15.7476
rtibia 55.6947
rfoot 1.28645 -1.64653
rtoes -3.16855
lfemur -2.57754 13.3326 -10.3582
ltibia 28.5338
lfoot -16.1941 1.20943
ltoes -9.06198
507
root 5.30811 16.5026 -4.35525 314.192 -96.8728 -319.643
lowerback 4.63819 -4.19024 2.31984
upperback 1.32545 -5.69661 7.35096
thorax -0.685258 -3.00122 6.62797
lowerneck -0.68834 12.9982 17.5271
upperneck 3.401 18.0376 -17.0334
head 4.30289 8.88325 -6.86969
rclavicle -8.44835e-015 -3.97569e-014
rhumerus 9.53666 55.0366 -35.1078
rradius 102.255
rwrist -49.6904
rhand 41.3104 -23.0566
rfingers 7.12502
rthumb 63.4722 -32.5881
lclavicle -8.44835e-015 -3.97569e-014
lhumerus -57.7141 -28.8509 98.163
lradius 85.4472
lwrist 49.4519
lhand 24.6911 43.2888
lfingers 7.12502
lthumb 48.8774 65.0816
rfemur -21.9367 -12.8553 14.6348
rtibia 57.6891
rfoot 3.3429 -1.40196
rtoes -1.83215
lfemur -1.86384 13.5341 -11.351
ltibia 27.1735
lfoot -16.473 1.50693
ltoes -9.62882
508
root 5.32359 16.4995 -4.30191 320.625 -96.9158 -325.967
lowerback 4.64174 -4.24704 1.92828
upperback 1.3437 -5.78807 7.29551
thorax -0.627209 -3.04707 6.79157
lowerneck -0.893746 12.9672 17.439
upperneck 4.05419 18.0381 -17.05
head 4.52627 8.8653 -6.83576
rclavicle -3.73218e-014 1.11319e-014
rhumerus 11.5503 55.9125 -32.9775
rradius 101.042
rwrist -48.0181
rhand 41.1526 -22.8971
rfingers 7.12502
rthumb 63.3434 -32.6113
lclavicle -3.73218e-014 1.11319e-014
lhumerus -58.0562 -29.6982 98.3892
lradius 83.4068
lwrist 47.3438
lhand 24.6098 43.1386
lfingers 7.12502
lthumb 48.8027 64.968
rfemur -23.7423 -13.4612 13.7304
rtibia 59.6156
rfoot 5.22755 -1.38535
rtoes 0.477853
lfemur -1.20694 13.8164 -12.1963
ltibia 25.8128
lfoot -16.7416 1.73286
ltoes -9.49073
509
root 5.33648 16.492 -4.25216 327.231 -97.0674 -332.548
lowerback 4.66256 -4.28499 1.50335
upperback 1.40476 -5.85591 7.19428
thorax -0.537541 -3.08117 6.9235
lowerneck -1.09803 12.9056 17.3154
upperneck 4.65472 17.9861 -17.0017
head 4.71535 8.82235 -6.78592
rclavicle -6.95746e-015 9.06458e-014
rhumerus 13.6869 56.7243 -30.7525
rradius 99.764
rwrist -46.2811
rhand 41.1809 -22.5423
rfingers 7.12502
rthumb 63.3666 -32.2238
lclavicle -6.95746e-015 9.06458e-014
lhumerus -58.402 -30.5919 98.591
lradius 81.4303
lwrist 45.4821
lhand 24.6786 43.3261
lfingers 7.12502
lthumb 48.8659 65.1246
rfemur -25.4531 -13.9218 12.8362
rtibia 61.4973
rfoot 7.00498 -1.36401
rtoes 1.07285
lfemur -0.421799 14.2972 -13.0047
ltibia 24.4138
lfoot -17.0097 1.89335
ltoes -9.14453
510
root 5.35229 16.4834 -4.20544 333.158 -96.8403 -338.352
lowerback 4.6432 -4.46456 0.956883
upperback 1.35312 -6.10553 7.02973
thorax -0.515479 -3.20109 7.06543
lowerneck -1.28532 12.7951 17.1794
upperneck 5.33544 17.8717 -16.892
head 4.90826 8.74965 -6.72455
rclavicle 7.45443e-016 -1.59028e-014
rhumerus 15.6275 57.4898 -28.7909
rradius 98.4866
rwrist -44.4809
rhand 41.1996 -22.4685
rfingers 7.12502
rthumb 63.3819 -32.1284
lclavicle 7.45443e-016 -1.59028e-014
lhumerus -58.8757 -31.5142 98.8391
lradius 79.5514
lwrist 43.6708
lhand 24.8459 43.6124
lfingers 7.12502
lthumb 49.0196 65.3351
rfemur -27.1676 -14.807 11.7958
rtibia 63.3347
rfoot 8.69092 -1.43491
rtoes 1.1947
lfemur 0.132292 14.4269 -14.0486
ltibia 23.0195
lfoot -17.1928 2.02911
ltoes -8.75895
